<svg width="18" height="18" viewBox="0 0 18 18" fill="none" xmlns="http://www.w3.org/2000/svg">
<g opacity="0.7">
<path d="M11.9991 2.99951H13.499C13.8967 2.99951 14.2782 3.15756 14.5595 3.43888C14.8408 3.72021 14.9988 4.10177 14.9988 4.49963V15.0005C14.9988 15.3983 14.8408 15.7799 14.5595 16.0612C14.2782 16.3425 13.8967 16.5006 13.499 16.5006H4.49985C4.10207 16.5006 3.72057 16.3425 3.4393 16.0612C3.15802 15.7799 3 15.3983 3 15.0005V4.49963C3 4.10177 3.15802 3.72021 3.4393 3.43888C3.72057 3.15756 4.10207 2.99951 4.49985 2.99951H5.9997M8.9994 8.24993H11.9991M8.9994 12.0002H11.9991M5.9997 8.24993H6.0072M5.9997 12.0002H6.0072M6.74963 1.49939H11.2492C11.6633 1.49939 11.9991 1.8352 11.9991 2.24945V3.74957C11.9991 4.16382 11.6633 4.49963 11.2492 4.49963H6.74963C6.33545 4.49963 5.9997 4.16382 5.9997 3.74957V2.24945C5.9997 1.8352 6.33545 1.49939 6.74963 1.49939Z" stroke="white" stroke-width="2" stroke-linecap="round"/>
</g>
</svg>
